<svg id="Calque_2" xmlns="http://www.w3.org/2000/svg" viewBox="0 0 1601.22 849.37"><defs><style>.cls-1{fill:#e8c3c4}.cls-2{fill:#caaa45}.cls-3{fill:#788ab1}.cls-4{fill:#d16b58}.cls-5{fill:#cdd2d0}</style></defs><g id="Calque_1-2"><path class="cls-5" d="M179.82 391.96c-1.18-.03-7.42-.05-12.58 4.86-5.21 4.96-5.45 11.27-5.47 12.43.02-1.39-.05-7.07-4.38-12.01-4.98-5.69-11.77-6.01-12.92-6.04.82.11 8.09.92 13.55-4.64 5.04-5.14 4.58-11.7 4.5-12.65-.04 1.07-.18 8.15 5.48 13.43 4.78 4.45 10.48 4.62 11.81 4.63z"/><path class="cls-4" d="M1075.82 831.96c-1.18-.03-7.42-.05-12.58 4.86-5.21 4.96-5.45 11.27-5.47 12.43.02-1.39-.05-7.07-4.38-12.01-4.98-5.69-11.77-6.01-12.92-6.04.82.11 8.09.92 13.55-4.64 5.04-5.14 4.58-11.7 4.5-12.65-.04 1.07-.18 8.15 5.48 13.43 4.78 4.45 10.48 4.62 11.81 4.63z"/><path class="cls-1" d="M25.13 738.45c-.84-.02-5.28-.04-8.94 3.46-3.7 3.53-3.88 8.01-3.89 8.84.01-.98-.04-5.03-3.11-8.54-3.54-4.05-8.37-4.27-9.18-4.3.58.08 5.75.66 9.64-3.3 3.59-3.66 3.26-8.32 3.2-8.99-.03.76-.13 5.8 3.9 9.55 3.4 3.17 7.45 3.29 8.4 3.29z"/><path class="cls-2" d="M86.75 14.06c-.92-.02-5.78-.04-9.8 3.79-4.06 3.86-4.25 8.78-4.26 9.69.02-1.08-.04-5.51-3.41-9.36-3.88-4.43-9.17-4.68-10.06-4.71.64.08 6.3.72 10.56-3.62C73.71 5.84 73.35.74 73.29 0c-.03.83-.14 6.35 4.27 10.46 3.72 3.47 8.16 3.6 9.2 3.6z"/><path class="cls-1" d="M1211.27 488.98c-1.24-.03-7.77-.05-13.18 5.09-5.46 5.2-5.71 11.8-5.74 13.03.02-1.45-.05-7.41-4.58-12.59-5.22-5.96-12.33-6.29-13.53-6.33.86.11 8.48.97 14.2-4.87 5.29-5.39 4.8-12.25 4.72-13.25-.04 1.12-.19 8.54 5.74 14.07 5.01 4.67 10.98 4.84 12.38 4.85z"/><path class="cls-3" d="M1556.59 832.08c-1.18-.03-7.42-.05-12.58 4.86-5.21 4.96-5.45 11.27-5.47 12.43.02-1.39-.05-7.07-4.38-12.01-4.98-5.69-11.77-6.01-12.92-6.04.82.11 8.09.92 13.55-4.64 5.04-5.14 4.58-11.7 4.5-12.65-.04 1.07-.18 8.15 5.48 13.43 4.78 4.45 10.48 4.62 11.81 4.63z"/><path class="cls-2" d="M961.71 53.22c-1.13-.03-7.11-.05-12.05 4.66-4.99 4.75-5.22 10.8-5.25 11.91.02-1.33-.05-6.78-4.19-11.51-4.77-5.45-11.28-5.76-12.38-5.79.78.1 7.75.88 12.99-4.45 4.83-4.93 4.39-11.21 4.31-12.12-.04 1.02-.17 7.81 5.25 12.87 4.58 4.27 10.04 4.43 11.32 4.43z"/><path class="cls-4" d="M373.02 751.55c-1.18-.03-7.42-.05-12.58 4.86-5.21 4.96-5.45 11.27-5.47 12.43.02-1.39-.05-7.07-4.38-12.01-4.98-5.69-11.77-6.01-12.92-6.04.82.11 8.09.92 13.55-4.64 5.04-5.14 4.58-11.7 4.5-12.65-.04 1.07-.18 8.15 5.48 13.43 4.78 4.45 10.48 4.62 11.81 4.63z"/><path class="cls-3" d="M1601.22 428.25c-.57-.01-3.57-.03-6.05 2.34-2.51 2.39-2.62 5.42-2.63 5.98.01-.67-.02-3.4-2.11-5.78-2.4-2.74-5.67-2.89-6.22-2.91.39.05 3.89.44 6.52-2.23 2.43-2.47 2.21-5.63 2.17-6.09-.02.51-.09 3.92 2.64 6.46 2.3 2.14 5.04 2.22 5.68 2.23z"/><path class="cls-2" d="M1592.91 31.13c-.57-.01-3.59-.03-6.09 2.35-2.52 2.4-2.64 5.46-2.65 6.02.01-.67-.02-3.43-2.12-5.82-2.41-2.76-5.7-2.91-6.25-2.93.4.05 3.92.45 6.56-2.25 2.44-2.49 2.22-5.66 2.18-6.13-.02.52-.09 3.95 2.65 6.5 2.31 2.16 5.07 2.24 5.72 2.24z"/><path class="cls-5" d="M696.91 455.34c-1.18-.03-7.42-.05-12.58 4.86-5.21 4.96-5.45 11.27-5.47 12.43.02-1.39-.05-7.07-4.38-12.01-4.98-5.69-11.77-6.01-12.92-6.04.82.11 8.09.92 13.55-4.64 5.04-5.14 4.58-11.7 4.5-12.65-.04 1.07-.18 8.15 5.48 13.43 4.78 4.45 10.48 4.62 11.81 4.63z"/><path class="cls-1" d="M547.25 35.68c-.94-.02-5.92-.04-10.04 3.88-4.16 3.96-4.35 8.99-4.37 9.92.02-1.11-.04-5.64-3.49-9.59-3.98-4.54-9.4-4.79-10.31-4.82.65.08 6.46.74 10.82-3.71 4.03-4.1 3.66-9.33 3.59-10.09-.03.85-.14 6.51 4.37 10.72 3.81 3.55 8.36 3.69 9.43 3.69z"/></g></svg>