<svg id="Calque_2" xmlns="http://www.w3.org/2000/svg" viewBox="0 0 151.82 166.41"><defs><style>.cls-1{fill:#fff}.cls-4{font-family:MyriadPro-Regular,&apos;Myriad Pro&apos;;font-size:12px}.cls-5{fill:#d16b58;font-family:Medhurst-regular,Medhurst;font-size:29px}</style></defs><g id="Calque_1-2"><text class="cls-4" transform="translate(74.64 86.73)"><tspan x="0" y="0"></tspan></text><path class="cls-1" d="M47.02 152.69l-20.19-3.53-7.04-19.25-15.71-13.15 3.53-20.19L.57 77.33l13.15-15.72 3.53-20.19 19.25-7.03 13.15-15.72 20.19 3.53 19.24-7.04 15.72 13.15 20.19 3.53 7.03 19.25 15.72 13.15-3.53 20.19 7.04 19.25-13.15 15.71-3.53 20.19-19.25 7.04-13.15 15.71-20.19-3.53-19.25 7.04-15.71-13.15z"/><path d="M88.98 15.73l15.39 12.88.21.17.26.05 19.77 3.46 6.89 18.85.09.25.21.17 15.39 12.88-3.46 19.77-.05.26.09.25 6.89 18.85-12.88 15.39-.17.21-.05.26-3.46 19.77-18.85 6.89-.25.09-.17.21-12.88 15.39-19.77-3.46-.26-.05-.25.09-18.85 6.89-15.39-12.88-.21-.17-.26-.05-19.77-3.46-6.89-18.85-.09-.25-.21-.17-15.39-12.88 3.46-19.77.05-.26-.09-.25-6.89-18.83 12.88-15.39.17-.21.05-.26L17.7 41.8l18.85-6.89.25-.09.17-.21 12.88-15.39 19.77 3.46.26.05.25-.09 18.85-6.89m.2-1.14L69.79 21.7l-20.34-3.56L36.2 33.98l-19.39 7.09-3.56 20.34L0 77.23l7.09 19.39-3.56 20.34 15.84 13.25 7.09 19.39 20.34 3.56 15.84 13.25 19.39-7.09 20.34 3.56 13.25-15.84 19.39-7.09 3.56-20.34 13.25-15.84-7.09-19.39 3.56-20.34-15.84-13.25-7.09-19.39-20.34-3.56-15.84-13.25z"/><path class="cls-1" d="M47.02 151.88l-20.19-3.53-7.04-19.25-15.71-13.15 3.53-20.19L.57 76.52 13.72 60.8l3.53-20.19 19.25-7.04 13.15-15.71 20.19 3.53 19.24-7.04L104.8 27.5l20.19 3.53 7.03 19.25 15.72 13.15-3.53 20.19 7.04 19.24-13.15 15.72-3.53 20.19-19.25 7.04-13.15 15.71-20.19-3.53-19.25 7.04-15.71-13.15z"/><path d="M88.98 14.92l15.39 12.88.21.17.26.05 19.77 3.46 6.89 18.85.09.25.21.17 15.39 12.88-3.46 19.77-.05.26.09.25 6.89 18.85-12.88 15.39-.17.21-.05.26-3.46 19.77-18.85 6.89-.25.09-.17.21-12.88 15.39-19.77-3.46-.26-.05-.25.09-18.85 6.89-15.39-12.88-.21-.17-.26-.05-19.77-3.46-6.89-18.85-.09-.25-.21-.17-15.39-12.88 3.46-19.77.05-.26-.09-.25-6.89-18.84 12.88-15.39.17-.21.05-.26 3.46-19.77 18.85-6.89.25-.09.17-.21L49.85 18.4l19.77 3.46.26.05.25-.09 18.85-6.89m.2-1.14l-19.39 7.09-20.34-3.56L36.2 33.16l-19.39 7.09-3.56 20.34L0 76.42l7.09 19.39-3.56 20.34 15.84 13.25 7.09 19.39 20.34 3.56 15.84 13.25 19.39-7.09 20.34 3.56 13.25-15.84 19.39-7.09 3.56-20.34 13.25-15.84-7.09-19.39 3.56-20.34-15.84-13.25-7.09-19.39-20.34-3.56-15.84-13.25z"/><path class="cls-1" d="M47.02 151.07l-20.19-3.53-7.04-19.25-15.71-13.15 3.53-20.19L.57 75.7l13.15-15.71 3.53-20.19 19.25-7.04 13.15-15.71 20.19 3.53 19.24-7.04 15.72 13.15 20.19 3.53 7.03 19.25 15.72 13.15-3.53 20.19 7.04 19.24-13.15 15.72-3.53 20.19-19.25 7.04-13.15 15.71-20.19-3.53-19.25 7.04-15.71-13.15z"/><path d="M88.98 14.11l15.39 12.88.21.17.26.05 19.77 3.46 6.89 18.85.09.25.21.17 15.39 12.88-3.46 19.77-.05.26.09.25 6.89 18.85-12.88 15.39-.17.21-.05.26-3.46 19.77-18.85 6.89-.25.09-.17.21-12.88 15.39-19.77-3.46-.26-.05-.25.09-18.85 6.89-15.39-12.88-.21-.17-.26-.05-19.77-3.46-6.89-18.85-.09-.25-.21-.17-15.39-12.88 3.46-19.77.05-.26-.09-.25L1.14 75.8l12.88-15.39.17-.21.05-.26 3.46-19.77 18.85-6.89.25-.09.17-.21 12.88-15.39 19.77 3.46.26.05.25-.09 18.85-6.89m.2-1.14l-19.39 7.09-20.34-3.56L36.2 32.35l-19.39 7.09-3.56 20.34L0 75.61 7.09 95l-3.56 20.34 15.84 13.25 7.09 19.39 20.34 3.56 15.84 13.25 19.39-7.09 20.34 3.56 13.25-15.84 19.39-7.09 3.56-20.34 13.25-15.84-7.09-19.39 3.56-20.34-15.84-13.25-7.09-19.39-20.34-3.56-15.84-13.25z"/><path class="cls-1" d="M47.02 150.26l-20.19-3.53-7.04-19.25-15.71-13.15 3.53-20.19L.57 74.89l13.15-15.71 3.53-20.19 19.25-7.04 13.15-15.71 20.19 3.53 19.24-7.04 15.72 13.15 20.19 3.53 7.03 19.25 15.72 13.15L144.21 82l7.04 19.24-13.15 15.72-3.53 20.19-19.25 7.03-13.15 15.72-20.19-3.53-19.25 7.04-15.71-13.15z"/><path d="M88.98 13.3l15.39 12.88.21.17.26.05 19.77 3.46 6.89 18.85.09.25.21.17 15.39 12.88-3.46 19.77-.05.26.09.25 6.89 18.85-12.88 15.39-.17.21-.05.26-3.46 19.77-18.85 6.89-.25.09-.17.21-12.88 15.39-19.77-3.46-.26-.05-.25.09-18.85 6.89-15.39-12.88-.21-.17-.26-.05-19.77-3.46-6.89-18.85-.09-.25-.21-.17-15.39-12.88 3.46-19.77.05-.26-.09-.25-6.89-18.84L14.02 59.6l.17-.21.05-.26 3.46-19.77 18.85-6.89.25-.09.17-.21 12.88-15.39 19.77 3.46.26.05.25-.09 18.85-6.89m.2-1.14l-19.39 7.09-20.34-3.56L36.2 31.54l-19.39 7.09-3.56 20.34L0 74.79l7.09 19.39-3.56 20.34 15.84 13.25 7.09 19.39 20.34 3.56 15.84 13.25 19.39-7.09 20.34 3.56 13.25-15.84 19.39-7.09 3.56-20.34 13.25-15.84-7.09-19.39 3.56-20.34-15.84-13.25-7.09-19.39-20.34-3.56-15.84-13.25z"/><path class="cls-1" d="M47.02 149.45l-20.19-3.53-7.04-19.25-15.71-13.15 3.53-20.19L.57 74.08l13.15-15.71 3.53-20.19 19.25-7.04 13.15-15.72 20.19 3.54 19.24-7.04 15.72 13.15 20.19 3.53 7.03 19.25L147.74 61l-3.53 20.19 7.04 19.24-13.15 15.72-3.53 20.19-19.25 7.03-13.15 15.72-20.19-3.53-19.25 7.04-15.71-13.15z"/><path d="M88.98 12.49l15.39 12.88.21.17.26.05 19.77 3.46 6.89 18.85.09.25.21.17 15.39 12.88-3.46 19.77-.05.26.09.25 6.89 18.85-12.88 15.39-.17.21-.05.26-3.46 19.77-18.85 6.89-.25.09-.17.21-12.88 15.39-19.77-3.46-.26-.05-.25.09-18.85 6.89-15.39-12.88-.21-.17-.26-.05-19.77-3.46-6.89-18.85-.09-.25-.21-.17L4.61 113.3l3.46-19.77.05-.26-.09-.25-6.89-18.84 12.88-15.39.17-.21.05-.26 3.46-19.77 18.85-6.89.25-.09.17-.21 12.88-15.39 19.77 3.46.26.05.25-.09 18.85-6.89m.2-1.14l-19.39 7.09-20.34-3.56L36.2 30.73l-19.39 7.09-3.56 20.34L0 73.98l7.09 19.39-3.56 20.34 15.84 13.25 7.09 19.39 20.34 3.56 15.84 13.25 19.39-7.09 20.34 3.56 13.25-15.84 19.39-7.09 3.56-20.34 13.25-15.84-7.09-19.39 3.56-20.34-15.84-13.25-7.09-19.39-20.34-3.56-15.84-13.25z"/><path class="cls-1" d="M47.02 148.64l-20.19-3.53-7.04-19.25-15.71-13.15 3.53-20.19L.57 73.27l13.15-15.71 3.53-20.19 19.25-7.04 13.15-15.72 20.19 3.53 19.24-7.03 15.72 13.15 20.19 3.53 7.03 19.25 15.72 13.15-3.53 20.18 7.04 19.25-13.15 15.72-3.53 20.19-19.25 7.03-13.15 15.72-20.19-3.53-19.25 7.04-15.71-13.15z"/><path d="M88.98 11.68l15.39 12.88.21.17.26.05 19.77 3.46 6.89 18.85.09.25.21.17 15.39 12.88-3.46 19.77-.05.26.09.25 6.89 18.85-12.88 15.39-.17.21-.05.26-3.46 19.77-18.85 6.89-.25.09-.17.21-12.88 15.39-19.77-3.46-.26-.05-.25.09-18.85 6.89-15.39-12.88-.21-.17-.26-.05-19.77-3.46-6.89-18.85-.09-.25-.21-.17-15.39-12.88 3.46-19.77.05-.26-.09-.25-6.89-18.84 12.88-15.39.17-.21.05-.26 3.46-19.77 18.85-6.89.25-.09.17-.21 12.88-15.39 19.77 3.46.26.05.25-.09 18.85-6.89m.2-1.14l-19.39 7.09-20.34-3.56L36.2 29.92l-19.39 7.09-3.56 20.34L0 73.17l7.09 19.39-3.56 20.34 15.84 13.25 7.09 19.39 20.34 3.56 15.84 13.25 19.39-7.09 20.34 3.56 13.25-15.84 19.39-7.09 3.56-20.34 13.25-15.84-7.09-19.39 3.56-20.34-15.84-13.25-7.09-19.39-20.34-3.56-15.84-13.25z"/><path class="cls-1" d="M47.02 147.83l-20.19-3.54-7.04-19.24L4.08 111.9l3.53-20.19L.57 72.46l13.15-15.72 3.53-20.18 19.25-7.04L49.65 13.8l20.19 3.53 19.24-7.03 15.72 13.15 20.19 3.53 7.03 19.25 15.72 13.15-3.53 20.18 7.04 19.25-13.15 15.72-3.53 20.19-19.25 7.03-13.15 15.72-20.19-3.53-19.25 7.04-15.71-13.15z"/><path d="M88.98 10.87l15.39 12.88.21.17.26.05 19.77 3.46 6.89 18.85.09.25.21.17 15.39 12.88-3.46 19.77-.05.26.09.25 6.89 18.85-12.88 15.39-.17.21-.05.26-3.46 19.77-18.85 6.89-.25.09-.17.21-12.88 15.39-19.77-3.46-.26-.05-.25.09-18.85 6.89-15.39-12.88-.21-.17-.26-.05-19.77-3.46-6.89-18.85-.09-.25-.21-.17-15.39-12.88 3.46-19.77.05-.26-.09-.25-6.89-18.84 12.88-15.39.17-.21.05-.26 3.46-19.77 18.85-6.89.25-.09.17-.21 12.88-15.39 19.77 3.46.26.05.25-.09 18.85-6.89m.2-1.14l-19.39 7.09-20.34-3.56L36.2 29.11 16.81 36.2l-3.56 20.34L0 72.36l7.09 19.39-3.56 20.34 15.84 13.25 7.09 19.39 20.34 3.56 15.84 13.25 19.39-7.09 20.34 3.56 13.25-15.84 19.39-7.09 3.56-20.34 13.25-15.84-7.09-19.39 3.56-20.34-15.84-13.25-7.09-19.39-20.34-3.56L89.18 9.72z"/><path class="cls-1" d="M47.02 147.01l-20.19-3.53-7.04-19.24-15.71-13.15L7.61 90.9.57 71.65l13.15-15.72 3.53-20.18 19.25-7.04 13.15-15.72 20.19 3.53 19.24-7.03 15.72 13.15 20.19 3.53 7.03 19.25 15.72 13.15-3.53 20.18L151.25 98l-13.15 15.72-3.53 20.19-19.25 7.03-13.15 15.72-20.19-3.53-19.25 7.04-15.71-13.16z"/><path d="M88.98 10.06l15.39 12.88.21.17.26.05 19.77 3.46 6.89 18.85.09.25.21.17 15.39 12.88-3.46 19.77-.05.26.09.25 6.89 18.85-12.88 15.39-.17.21-.05.26-3.46 19.77-18.85 6.89-.25.09-.17.21-12.88 15.39-19.77-3.46-.26-.05-.25.09-18.85 6.89-15.39-12.88-.21-.17-.26-.05-19.77-3.46-6.89-18.85-.09-.25-.21-.17-15.39-12.88L8.07 91.1l.05-.26-.09-.25-6.89-18.84 12.88-15.39.17-.21.05-.26 3.46-19.77 18.85-6.89.25-.09.17-.21 12.88-15.39L69.62 17l.26.05.25-.09 18.85-6.89m.2-1.14l-19.39 7.09-20.34-3.56L36.2 28.3l-19.39 7.09-3.56 20.34L0 71.55l7.09 19.39-3.56 20.34 15.84 13.25 7.09 19.39 20.34 3.56 15.84 13.25 19.39-7.09 20.34 3.56 13.25-15.84 19.39-7.09 3.56-20.34 13.25-15.84-7.09-19.39 3.56-20.34-15.84-13.25-7.09-19.39-20.34-3.56L89.18 8.91z"/><path class="cls-1" d="M47.02 146.2l-20.19-3.53-7.04-19.24-15.71-13.15 3.53-20.19L.57 70.84l13.15-15.72 3.53-20.18L36.5 27.9l13.15-15.72 20.19 3.53 19.24-7.03 15.72 13.15 20.19 3.53 7.03 19.24 15.72 13.16-3.53 20.18 7.04 19.25-13.15 15.72-3.53 20.18-19.25 7.04-13.15 15.72-20.19-3.53-19.25 7.03-15.71-13.15z"/><path d="M88.98 9.24l15.39 12.88.21.17.26.05 19.77 3.46 6.89 18.85.09.25.21.17 15.39 12.88-3.46 19.77-.05.26.09.25 6.89 18.85-12.88 15.39-.17.21-.05.26-3.46 19.77-18.85 6.89-.25.09-.17.21-12.88 15.39-19.77-3.46-.26-.05-.25.09-18.85 6.89-15.39-12.88-.21-.17-.26-.05-19.77-3.46-6.89-18.85-.09-.25-.21-.17-15.39-12.88 3.46-19.77.05-.26-.09-.25-6.89-18.83 12.88-15.39.17-.21.05-.26 3.46-19.77 18.85-6.89.25-.09.17-.21 12.88-15.39 19.77 3.46.26.05.25-.09 18.85-6.89m.2-1.14l-19.39 7.09-20.34-3.56L36.2 27.49l-19.39 7.09-3.56 20.34L0 70.74l7.09 19.39-3.56 20.34 15.84 13.25 7.09 19.39 20.34 3.56 15.84 13.25 19.39-7.09 20.34 3.56 13.25-15.84 19.39-7.09 3.56-20.34 13.25-15.84-7.09-19.39 3.56-20.34-15.84-13.25-7.09-19.39-20.34-3.56L89.18 8.1z"/><path class="cls-1" d="M47.02 145.39l-20.19-3.53-7.04-19.24-15.71-13.16 3.53-20.18L.57 70.03l13.15-15.72 3.53-20.18 19.25-7.04 13.15-15.72 20.19 3.53 19.24-7.03 15.72 13.15 20.19 3.53 7.03 19.24 15.72 13.15-3.53 20.19 7.04 19.25-13.15 15.72-3.53 20.18-19.25 7.04-13.15 15.72-20.19-3.53-19.25 7.03-15.71-13.15z"/><path d="M88.98 8.43l15.39 12.88.21.17.26.05 19.77 3.46 6.89 18.85.09.25.21.17 15.39 12.88-3.46 19.77-.05.26.09.25 6.89 18.85-12.88 15.39-.17.21-.05.26-3.46 19.77-18.85 6.89-.25.09-.17.21-12.88 15.39-19.77-3.46-.26-.05-.25.09-18.85 6.89-15.39-12.88-.21-.17-.26-.05-19.77-3.46-6.89-18.85-.09-.25-.21-.17-15.39-12.88 3.46-19.77.05-.26-.09-.25-6.89-18.83 12.88-15.39.17-.21.05-.26L17.7 34.5l18.85-6.89.25-.09.17-.21 12.88-15.39 19.77 3.46.26.05.25-.09 18.85-6.89m.2-1.14L69.79 14.4l-20.34-3.56L36.2 26.68l-19.39 7.09-3.56 20.34L0 69.93l7.09 19.39-3.56 20.34 15.84 13.25 7.09 19.39 20.34 3.56 15.84 13.25 19.39-7.09 20.34 3.56 13.25-15.84 19.39-7.09 3.56-20.34 13.25-15.84-7.09-19.39 3.56-20.34-15.84-13.25-7.09-19.39-20.34-3.56L89.18 7.29z"/><g><path class="cls-1" d="M47.02 144.58l-20.19-3.53-7.04-19.25-15.71-13.15 3.53-20.18L.57 69.22 13.72 53.5l3.53-20.19 19.25-7.03 13.15-15.72 20.19 3.53 19.24-7.04 15.72 13.16 20.19 3.53 7.03 19.24 15.72 13.15-3.53 20.19 7.04 19.25-13.15 15.72-3.53 20.18-19.25 7.04-13.15 15.72-20.19-3.53-19.25 7.03-15.71-13.15z"/><path d="M88.98 7.62l15.39 12.88.21.17.26.05 19.77 3.46 6.89 18.85.09.25.21.17 15.39 12.88-3.46 19.77-.05.26.09.25 6.89 18.85-12.88 15.39-.17.21-.05.26-3.46 19.77-18.85 6.89-.25.09-.17.21-12.88 15.39-19.77-3.46-.26-.05-.25.09-18.85 6.89-15.39-12.88-.21-.17-.26-.05-19.77-3.46-6.89-18.85-.09-.25-.21-.17-15.39-12.88 3.46-19.77.05-.26-.09-.25-6.89-18.83 12.88-15.39.17-.21.05-.26 3.46-19.77 18.85-6.89.25-.09.17-.21 12.88-15.39 19.77 3.46.26.05.25-.09 18.85-6.89m.2-1.14l-19.39 7.09-20.34-3.56L36.2 25.87l-19.39 7.09-3.56 20.34L0 69.12l7.09 19.39-3.56 20.34 15.84 13.25 7.09 19.39 20.34 3.56 15.84 13.25 19.39-7.09 20.34 3.56 13.25-15.84 19.39-7.09 3.56-20.34 13.25-15.84-7.09-19.39 3.56-20.34-15.84-13.25-7.09-19.39-20.34-3.56L89.18 6.48z"/></g><g><path class="cls-1" d="M47.02 143.77l-20.19-3.53-7.04-19.25-15.71-13.15 3.53-20.18L.57 68.41l13.15-15.72 3.53-20.19 19.25-7.03L49.65 9.75l20.19 3.53 19.24-7.04 15.72 13.15 20.19 3.53 7.03 19.25 15.72 13.15-3.53 20.19 7.04 19.25-13.15 15.72-3.53 20.18-19.25 7.04-13.15 15.72-20.19-3.53-19.25 7.03-15.71-13.15z"/><path d="M88.98 6.81l15.39 12.88.21.17.26.05 19.77 3.46 6.89 18.85.09.25.21.17 15.39 12.88-3.46 19.77-.05.26.09.25 6.89 18.85-12.88 15.39-.17.21-.05.26-3.46 19.77-18.85 6.89-.25.09-.17.21-12.88 15.39-19.77-3.46-.26-.05-.25.09-18.85 6.89-15.39-12.88-.21-.17-.26-.05-19.77-3.46-6.89-18.85-.09-.25-.21-.17-15.39-12.88 3.46-19.77.05-.26-.09-.25-6.89-18.83 12.88-15.39.17-.21.05-.26 3.46-19.77 18.85-6.89.25-.09.17-.21L49.85 10.3l19.77 3.46.26.05.25-.09 18.85-6.89m.2-1.14l-19.39 7.09-20.34-3.56L36.2 25.06l-19.39 7.09-3.56 20.34L0 68.31 7.09 87.7l-3.56 20.34 15.84 13.25 7.09 19.39 20.34 3.56 15.84 13.25 19.39-7.09 20.34 3.56 13.25-15.84 19.39-7.09 3.56-20.34 13.25-15.84-7.09-19.39 3.56-20.34-15.84-13.25-7.09-19.39-20.34-3.56L89.18 5.67z"/></g><g><path class="cls-1" d="M47.02 142.96l-20.19-3.53-7.04-19.25-15.71-13.15 3.53-20.18L.57 67.6l13.15-15.72 3.53-20.19 19.25-7.03L49.65 8.94l20.19 3.53 19.24-7.04 15.72 13.15 20.19 3.53 7.03 19.25 15.72 13.15-3.53 20.19 7.04 19.25-13.15 15.71-3.53 20.19-19.25 7.04-13.15 15.72-20.19-3.53-19.25 7.03-15.71-13.15z"/><path d="M88.98 6l15.39 12.88.21.17.26.05 19.77 3.46 6.89 18.85.09.25.21.17 15.39 12.88-3.46 19.77-.05.26.09.25 6.89 18.85-12.88 15.39-.17.21-.05.26-3.46 19.77-18.85 6.89-.25.09-.17.21-12.88 15.39-19.77-3.46-.26-.05-.25.09-18.85 6.89-15.39-12.88-.21-.17-.26-.05-19.77-3.46-6.89-18.85-.09-.25-.21-.17-15.39-12.88 3.46-19.77.05-.26-.09-.25L1.14 67.7l12.88-15.39.17-.21.05-.26 3.46-19.77 18.85-6.89.25-.09.17-.21L49.85 9.49l19.77 3.46.26.05.25-.09 18.85-6.89m.2-1.14l-19.39 7.09-20.34-3.56L36.2 24.25l-19.39 7.09-3.56 20.34L0 67.5l7.09 19.39-3.56 20.34 15.84 13.25 7.09 19.39 20.34 3.56 15.84 13.25 19.39-7.09 20.34 3.56 13.25-15.84 19.39-7.09 3.56-20.34 13.25-15.84-7.09-19.39 3.56-20.34-15.84-13.25-7.09-19.39-20.34-3.56L89.18 4.86z"/></g><g><path class="cls-1" d="M47.02 142.15l-20.19-3.53-7.04-19.25-15.71-13.15 3.53-20.19L.57 66.79l13.15-15.72 3.53-20.19 19.25-7.03L49.65 8.13l20.19 3.53 19.24-7.04 15.72 13.15 20.19 3.53 7.03 19.25 15.72 13.15-3.53 20.19 7.04 19.25-13.15 15.71-3.53 20.19-19.25 7.04-13.15 15.71-20.19-3.53-19.25 7.04-15.71-13.15z"/><path d="M88.98 5.19l15.39 12.88.21.17.26.05 19.77 3.46 6.89 18.85.09.25.21.17 15.39 12.88-3.46 19.77-.05.26.09.25 6.89 18.85-12.88 15.39-.17.21-.05.26-3.46 19.77-18.85 6.89-.25.09-.17.21-12.88 15.39-19.77-3.46-.26-.05-.25.09-18.85 6.89-15.39-12.88-.21-.17-.26-.05-19.77-3.46-6.89-18.85-.09-.25-.21-.17L4.61 106l3.46-19.77.05-.26-.09-.25-6.89-18.83L14.02 51.5l.17-.21.05-.26 3.46-19.77 18.85-6.89.25-.09.17-.21L49.85 8.68l19.77 3.46.26.05.25-.09 18.85-6.89m.2-1.14l-19.39 7.09L49.45 7.6 36.2 23.44l-19.39 7.09-3.56 20.34L0 66.69l7.09 19.39-3.56 20.34 15.84 13.25 7.09 19.39 20.34 3.56 15.84 13.25 19.39-7.09 20.34 3.56 13.25-15.84 19.39-7.09 3.56-20.34 13.25-15.84-7.09-19.39 3.56-20.34-15.84-13.25-7.09-19.39-20.34-3.56L89.18 4.05z"/></g><g><path class="cls-1" d="M47.02 141.34l-20.19-3.53-7.04-19.25-15.71-13.15 3.53-20.19L.57 65.98l13.15-15.72 3.53-20.19 19.25-7.03L49.65 7.32l20.19 3.53 19.24-7.04 15.72 13.15 20.19 3.53 7.03 19.25 15.72 13.15-3.53 20.19 7.04 19.25-13.15 15.71-3.53 20.19-19.25 7.04-13.15 15.71-20.19-3.53-19.25 7.04-15.71-13.15z"/><path d="M88.98 4.38l15.39 12.88.21.17.26.05 19.77 3.46 6.89 18.85.09.25.21.17 15.39 12.88-3.46 19.77-.05.26.09.25 6.89 18.85-12.88 15.39-.17.21-.05.26-3.46 19.77-18.85 6.89-.25.09-.17.21-12.88 15.39-19.77-3.46-.26-.05-.25.09-18.85 6.89-15.39-12.88-.21-.17-.26-.05-19.77-3.46-6.89-18.85-.09-.25-.21-.17-15.39-12.88 3.46-19.77.05-.26-.09-.25-6.89-18.83 12.88-15.39.17-.21.05-.26 3.46-19.77 18.85-6.89.25-.09.17-.21L49.85 7.87l19.77 3.46.26.05.25-.09L88.98 4.4m.2-1.14l-19.39 7.09-20.34-3.56L36.2 22.63l-19.39 7.09-3.56 20.34L0 65.88l7.09 19.39-3.56 20.34 15.84 13.25 7.09 19.39 20.34 3.56 15.84 13.25 19.39-7.09 20.34 3.56 13.25-15.84 19.39-7.09 3.56-20.34 13.25-15.84-7.09-19.39 3.56-20.34-15.84-13.25-7.09-19.39-20.34-3.56L89.18 3.24z"/></g><g><path class="cls-1" d="M47.02 140.53L26.83 137l-7.04-19.25L4.08 104.6l3.53-20.19L.57 65.17l13.15-15.72 3.53-20.19 19.25-7.04L49.65 6.51l20.19 3.53L89.08 3l15.72 13.15 20.19 3.53 7.03 19.25 15.72 13.15-3.53 20.19 7.04 19.25-13.15 15.71-3.53 20.19-19.25 7.04-13.15 15.71-20.19-3.53-19.25 7.04-15.71-13.15z"/><path d="M88.98 3.57l15.39 12.88.21.17.26.05 19.77 3.46 6.89 18.85.09.25.21.17 15.39 12.88-3.46 19.77-.05.26.09.25 6.89 18.85-12.88 15.39-.17.21-.05.26-3.46 19.77-18.85 6.89-.25.09-.17.21-12.88 15.39-19.77-3.46-.26-.05-.25.09-18.85 6.89-15.39-12.88-.21-.17-.26-.05-19.77-3.46-6.89-18.85-.09-.25-.21-.17-15.39-12.88 3.46-19.77.05-.26-.09-.25-6.89-18.84 12.88-15.39.17-.21.05-.26 3.46-19.77 18.85-6.89.25-.09.17-.21L49.85 7.05l19.77 3.46.26.05.25-.09 18.85-6.89m.2-1.14L69.79 9.53 49.45 5.97 36.2 21.81 16.81 28.9l-3.56 20.34L0 65.07l7.09 19.39-3.56 20.34 15.84 13.25 7.09 19.39L46.8 141l15.84 13.25 19.39-7.09 20.34 3.56 13.25-15.84 19.39-7.09 3.56-20.34 13.25-15.84-7.09-19.39 3.56-20.34-15.84-13.25-7.09-19.39-20.34-3.56L89.18 2.43z"/></g><g><path class="cls-1" d="M47.02 139.72l-20.19-3.53-7.04-19.25-15.71-13.15L7.61 83.6.57 64.36l13.15-15.72 3.53-20.19 19.25-7.04L49.65 5.7l20.19 3.53 19.24-7.04 15.72 13.15 20.19 3.53 7.03 19.25 15.72 13.15-3.53 20.19 7.04 19.24-13.15 15.72-3.53 20.19-19.25 7.04-13.15 15.71-20.19-3.53-19.25 7.04-15.71-13.15z"/><path d="M88.98 2.76l15.39 12.88.21.17.26.05 19.77 3.46 6.89 18.85.09.25.21.17 15.39 12.88-3.46 19.77-.05.26.09.25 6.89 18.85-12.88 15.39-.17.21-.05.26-3.46 19.77-18.85 6.89-.25.09-.17.21-12.88 15.39-19.77-3.46-.26-.05-.25.09-18.85 6.89-15.39-12.88-.21-.17-.26-.05-19.77-3.46-6.89-18.85-.09-.25-.21-.17-15.39-12.88L8.07 83.8l.05-.26-.09-.25-6.89-18.84 12.88-15.39.17-.21.05-.26 3.46-19.77 18.85-6.89.25-.09.17-.21L49.85 6.24 69.62 9.7l.26.05.25-.09 18.85-6.89m.2-1.14L69.79 8.72 49.45 5.16 36.2 21l-19.39 7.09-3.56 20.34L0 64.26l7.09 19.39-3.56 20.34 15.84 13.25 7.09 19.39 20.34 3.56 15.84 13.25 19.39-7.09 20.34 3.56 13.25-15.84 19.39-7.09 3.56-20.34 13.25-15.84-7.09-19.39 3.56-20.34-15.84-13.25-7.09-19.39-20.34-3.56L89.18 1.62z"/></g><g><path class="cls-1" d="M47.02 138.91l-20.19-3.53-7.04-19.25-15.71-13.15 3.53-20.19L.57 63.54l13.15-15.71 3.53-20.19L36.5 20.6 49.65 4.89l20.19 3.53 19.24-7.04 15.72 13.15 20.19 3.53 7.03 19.25 15.72 13.15-3.53 20.19 7.04 19.24-13.15 15.72-3.53 20.19-19.25 7.03-13.15 15.72-20.19-3.53-19.25 7.04-15.71-13.15z"/><path d="M88.98 1.95l15.39 12.88.21.17.26.05 19.77 3.46 6.89 18.85.09.25.21.17 15.39 12.88-3.46 19.77-.05.26.09.25 6.89 18.85-12.88 15.39-.17.21-.05.26-3.46 19.77-18.85 6.89-.25.09-.17.21L101.95 148l-19.77-3.46-.26-.05-.25.09-18.85 6.89-15.39-12.88-.21-.17-.26-.05-19.77-3.46-6.89-18.85-.09-.25-.21-.17-15.39-12.88 3.46-19.77.05-.26-.09-.25-6.89-18.84 12.88-15.39.17-.21.05-.26 3.46-19.77 18.85-6.89.25-.09.17-.21L49.85 5.43l19.77 3.46.26.05.25-.09 18.85-6.9m.2-1.14L69.79 7.9 49.45 4.34 36.2 20.18l-19.39 7.09-3.56 20.34L0 63.44l7.09 19.39-3.56 20.34 15.84 13.25 7.09 19.39 20.34 3.56 15.84 13.25 19.39-7.09 20.34 3.56 13.25-15.84 19.39-7.09 3.56-20.34 13.25-15.84-7.09-19.39 3.56-20.34L132.45 37l-7.09-19.39-20.34-3.56L89.18.81z"/></g><path fill="#e8c3c4" d="M135.01 125.36l-19.39 7.09-13.25 15.83-20.34-3.55-19.4 7.09-15.83-13.25-20.34-3.56-7.09-19.39-15.84-13.25 3.56-20.34L0 62.63 13.25 46.8l3.56-20.34 19.39-7.09L49.45 3.53l20.34 3.56L89.18 0l15.84 13.25 20.34 3.56 7.09 19.39 15.83 13.25-3.55 20.34 7.09 19.39-13.25 15.84-3.56 20.34z"/><text class="cls-4" transform="translate(26.98 73.66)"><tspan x="0" y="0"></tspan></text><text class="cls-5" transform="translate(43.86 66.03)"><tspan x="0" y="0">UI/</tspan><tspan x="33.33" y="0" letter-spacing="-.05em">U</tspan><tspan x="49.11" y="0">X</tspan></text><text class="cls-5" transform="translate(33.44 101.58)"><tspan x="0" y="0">D</tspan><tspan x="19.51" y="0" letter-spacing=".01em">e</tspan><tspan x="36.76" y="0" letter-spacing="0">s</tspan><tspan x="49.14" y="0" letter-spacing="-.02em">i</tspan><tspan x="52.79" y="0" letter-spacing="0">g</tspan><tspan x="69.36" y="0">n</tspan></text></g></svg>